<?xml version="1.0" encoding="UTF-8" standalone="no"?>
<svg
   xmlns:dc="http://purl.org/dc/elements/1.1/"
   xmlns:cc="http://creativecommons.org/ns#"
   xmlns:rdf="http://www.w3.org/1999/02/22-rdf-syntax-ns#"
   xmlns:svg="http://www.w3.org/2000/svg"
   xmlns="http://www.w3.org/2000/svg"
   xmlns:sodipodi="http://sodipodi.sourceforge.net/DTD/sodipodi-0.dtd"
   xmlns:inkscape="http://www.inkscape.org/namespaces/inkscape"
   version="1.1"
   id="Layer_1"
   x="0px"
   y="0px"
   width="215.19798"
   height="263.27072"
   viewBox="0 0 213.046 260.55659"
   enable-background="new 0 0 396 288"
   xml:space="preserve"
   sodipodi:docname="uml.logo.svg"
   inkscape:version="1.0.1 (3bc2e813f5, 2020-09-07)"><metadata
   id="metadata783"><rdf:RDF><cc:Work
       rdf:about=""><dc:format>image/svg+xml</dc:format><dc:type
         rdf:resource="http://purl.org/dc/dcmitype/StillImage" /><dc:title></dc:title></cc:Work></rdf:RDF></metadata><defs
   id="defs781"><clipPath
     clipPathUnits="userSpaceOnUse"
     id="clipPath787"><rect
       style="fill:#0000ff;fill-rule:evenodd;stroke-width:0.966633"
       id="rect789"
       width="218.39708"
       height="289.47839"
       x="179.37537"
       y="-0.73919278" /></clipPath><clipPath
     clipPathUnits="userSpaceOnUse"
     id="clipPath791"><rect
       style="fill:#0000ff;fill-rule:evenodd;stroke-width:0.966633"
       id="rect793"
       width="218.39708"
       height="289.47839"
       x="179.37537"
       y="-0.73919278" /></clipPath><clipPath
     clipPathUnits="userSpaceOnUse"
     id="clipPath795"><rect
       style="fill:#0000ff;fill-rule:evenodd;stroke-width:0.966633"
       id="rect797"
       width="218.39708"
       height="289.47839"
       x="179.37537"
       y="-0.73919278" /></clipPath><clipPath
     clipPathUnits="userSpaceOnUse"
     id="clipPath799"><rect
       style="fill:#0000ff;fill-rule:evenodd;stroke-width:0.966633"
       id="rect801"
       width="218.39708"
       height="289.47839"
       x="179.37537"
       y="-0.73919278" /></clipPath><clipPath
     clipPathUnits="userSpaceOnUse"
     id="clipPath803"><rect
       style="fill:#0000ff;fill-rule:evenodd;stroke-width:0.966633"
       id="rect805"
       width="218.39708"
       height="289.47839"
       x="179.37537"
       y="-0.73919278" /></clipPath><clipPath
     clipPathUnits="userSpaceOnUse"
     id="clipPath807"><rect
       style="fill:#0000ff;fill-rule:evenodd;stroke-width:0.966633"
       id="rect809"
       width="218.39708"
       height="289.47839"
       x="179.37537"
       y="-0.73919278" /></clipPath><clipPath
     clipPathUnits="userSpaceOnUse"
     id="clipPath811"><rect
       style="fill:#0000ff;fill-rule:evenodd;stroke-width:0.966633"
       id="rect813"
       width="218.39708"
       height="289.47839"
       x="179.37537"
       y="-0.73919278" /></clipPath><clipPath
     clipPathUnits="userSpaceOnUse"
     id="clipPath815"><rect
       style="fill:#0000ff;fill-rule:evenodd;stroke-width:0.966633"
       id="rect817"
       width="218.39708"
       height="289.47839"
       x="179.37537"
       y="-0.73919278" /></clipPath><clipPath
     clipPathUnits="userSpaceOnUse"
     id="clipPath819"><rect
       style="fill:#0000ff;fill-rule:evenodd;stroke-width:0.966633"
       id="rect821"
       width="218.39708"
       height="289.47839"
       x="179.37537"
       y="-0.73919278" /></clipPath><clipPath
     clipPathUnits="userSpaceOnUse"
     id="clipPath823"><rect
       style="fill:#0000ff;fill-rule:evenodd;stroke-width:0.966633"
       id="rect825"
       width="218.39708"
       height="289.47839"
       x="179.37537"
       y="-0.73919278" /></clipPath><clipPath
     clipPathUnits="userSpaceOnUse"
     id="clipPath827"><rect
       style="fill:#0000ff;fill-rule:evenodd;stroke-width:0.966633"
       id="rect829"
       width="218.39708"
       height="289.47839"
       x="179.37537"
       y="-0.73919278" /></clipPath><clipPath
     clipPathUnits="userSpaceOnUse"
     id="clipPath831"><rect
       style="fill:#0000ff;fill-rule:evenodd;stroke-width:0.966633"
       id="rect833"
       width="218.39708"
       height="289.47839"
       x="179.37537"
       y="-0.73919278" /></clipPath><clipPath
     clipPathUnits="userSpaceOnUse"
     id="clipPath835"><rect
       style="fill:#0000ff;fill-rule:evenodd;stroke-width:0.966633"
       id="rect837"
       width="218.39708"
       height="289.47839"
       x="179.37537"
       y="-0.73919278" /></clipPath><clipPath
     clipPathUnits="userSpaceOnUse"
     id="clipPath839"><rect
       style="fill:#0000ff;fill-rule:evenodd;stroke-width:0.966633"
       id="rect841"
       width="218.39708"
       height="289.47839"
       x="179.37537"
       y="-0.73919278" /></clipPath><clipPath
     clipPathUnits="userSpaceOnUse"
     id="clipPath843"><rect
       style="fill:#0000ff;fill-rule:evenodd;stroke-width:0.966633"
       id="rect845"
       width="218.39708"
       height="289.47839"
       x="179.37537"
       y="-0.73919278" /></clipPath><clipPath
     clipPathUnits="userSpaceOnUse"
     id="clipPath847"><rect
       style="fill:#0000ff;fill-rule:evenodd;stroke-width:0.966633"
       id="rect849"
       width="218.39708"
       height="289.47839"
       x="179.37537"
       y="-0.73919278" /></clipPath><clipPath
     clipPathUnits="userSpaceOnUse"
     id="clipPath851"><rect
       style="fill:#0000ff;fill-rule:evenodd;stroke-width:0.966633"
       id="rect853"
       width="218.39708"
       height="289.47839"
       x="179.37537"
       y="-0.73919278" /></clipPath><clipPath
     clipPathUnits="userSpaceOnUse"
     id="clipPath855"><rect
       style="fill:#0000ff;fill-rule:evenodd;stroke-width:0.966633"
       id="rect857"
       width="218.39708"
       height="289.47839"
       x="179.37537"
       y="-0.73919278" /></clipPath><clipPath
     clipPathUnits="userSpaceOnUse"
     id="clipPath859"><rect
       style="fill:#0000ff;fill-rule:evenodd;stroke-width:0.966633"
       id="rect861"
       width="218.39708"
       height="289.47839"
       x="179.37537"
       y="-0.73919278" /></clipPath><clipPath
     clipPathUnits="userSpaceOnUse"
     id="clipPath863"><rect
       style="fill:#0000ff;fill-rule:evenodd;stroke-width:0.966633"
       id="rect865"
       width="218.39708"
       height="289.47839"
       x="179.37537"
       y="-0.73919278" /></clipPath><clipPath
     clipPathUnits="userSpaceOnUse"
     id="clipPath867"><rect
       style="fill:#0000ff;fill-rule:evenodd;stroke-width:0.966633"
       id="rect869"
       width="218.39708"
       height="289.47839"
       x="179.37537"
       y="-0.73919278" /></clipPath><clipPath
     clipPathUnits="userSpaceOnUse"
     id="clipPath871"><rect
       style="fill:#0000ff;fill-rule:evenodd;stroke-width:0.966633"
       id="rect873"
       width="218.39708"
       height="289.47839"
       x="179.37537"
       y="-0.73919278" /></clipPath><clipPath
     clipPathUnits="userSpaceOnUse"
     id="clipPath875"><rect
       style="fill:#0000ff;fill-rule:evenodd;stroke-width:0.966633"
       id="rect877"
       width="218.39708"
       height="289.47839"
       x="179.37537"
       y="-0.73919278" /></clipPath><clipPath
     clipPathUnits="userSpaceOnUse"
     id="clipPath879"><rect
       style="fill:#0000ff;fill-rule:evenodd;stroke-width:0.966633"
       id="rect881"
       width="218.39708"
       height="289.47839"
       x="179.37537"
       y="-0.73919278" /></clipPath><clipPath
     clipPathUnits="userSpaceOnUse"
     id="clipPath883"><rect
       style="fill:#0000ff;fill-rule:evenodd;stroke-width:0.966633"
       id="rect885"
       width="218.39708"
       height="289.47839"
       x="179.37537"
       y="-0.73919278" /></clipPath><clipPath
     clipPathUnits="userSpaceOnUse"
     id="clipPath887"><rect
       style="fill:#0000ff;fill-rule:evenodd;stroke-width:0.966633"
       id="rect889"
       width="218.39708"
       height="289.47839"
       x="179.37537"
       y="-0.73919278" /></clipPath><clipPath
     clipPathUnits="userSpaceOnUse"
     id="clipPath891"><rect
       style="fill:#0000ff;fill-rule:evenodd;stroke-width:0.966633"
       id="rect893"
       width="218.39708"
       height="289.47839"
       x="179.37537"
       y="-0.73919278" /></clipPath></defs><sodipodi:namedview
   pagecolor="#ffffff"
   bordercolor="#666666"
   borderopacity="1"
   objecttolerance="10"
   gridtolerance="10"
   guidetolerance="10"
   inkscape:pageopacity="0"
   inkscape:pageshadow="2"
   inkscape:window-width="1920"
   inkscape:window-height="1001"
   id="namedview779"
   showgrid="false"
   fit-margin-top="0"
   fit-margin-left="0"
   fit-margin-right="0"
   fit-margin-bottom="0"
   inkscape:zoom="1.4261168"
   inkscape:cx="-102.51755"
   inkscape:cy="88.698961"
   inkscape:window-x="-9"
   inkscape:window-y="-9"
   inkscape:window-maximized="1"
   inkscape:current-layer="Layer_1" />
<polygon
   fill="#fbbd16"
   points="222.729,240.603 246.553,252.477 261.867,183.949 261.867,258.923 288.753,272.151 288.753,145.616 247.914,126.278 234.982,186.663 221.937,113.84 181.323,94.391 181.323,221.04 208.096,234.496 208.096,158.167 "
   id="polygon716"
   clip-path="url(#clipPath891)"
   transform="translate(-181.323,-12.203)" />
<polygon
   fill="#452e7f"
   points="335.152,215.238 394.142,184.709 394.369,219.31 292.611,272.796 292.496,145.583 335.152,123.418 "
   id="polygon718"
   clip-path="url(#clipPath887)"
   transform="translate(-181.323,-12.203)" />
<path
   fill="#962444"
   d="m 275.298,12.158 -30.163,26.669 c 0,0 58.851,30.25 66,33.825 7.15,3.574 17.325,10.449 6.325,20.625 -11,10.175 -23.1,8.8 -31.35,4.675 -8.25,-4.125 -69.3,-34.925 -69.3,-34.925 l -31.074,26.399 c 0,0 59.949,30.525 69.85,35.75 9.9,5.226 46.75,18.15 81.675,-9.075 34.925,-27.225 29.976,-37.125 29.976,-39.05 0,-1.925 -0.825,-12.1 -6.875,-18.425 -6.051,-6.325 -23.65,-15.4 -31.075,-19.25 -7.425,-3.85 -53.989,-27.218 -53.989,-27.218 z"
   id="path720"
   clip-path="url(#clipPath883)"
   transform="translate(-181.323,-12.203)" />
<path
   fill="#4a2469"
   d="m 50.154,100.832 v 18.721 c 0,2.123 -0.057,3.614 -0.17,4.473 -0.113,0.859 -0.448,1.741 -1.006,2.646 -0.557,0.906 -1.29,1.594 -2.202,2.06 -0.911,0.468 -1.985,0.7 -3.222,0.7 -1.369,0 -2.577,-0.275 -3.626,-0.829 -1.048,-0.555 -1.831,-1.275 -2.352,-2.163 -0.519,-0.889 -0.825,-1.825 -0.92,-2.812 -0.095,-0.987 -0.141,-3.061 -0.141,-6.221 v -16.575 h 5.968 v 21.002 c 0,1.223 0.055,2.005 0.162,2.344 0.107,0.341 0.326,0.511 0.653,0.511 0.374,0 0.615,-0.188 0.725,-0.563 0.107,-0.375 0.161,-1.26 0.161,-2.655 v -20.639 z"
   id="path722"
   clip-path="url(#clipPath879)"
   transform="translate(-181.323,-12.203)" />
<path
   fill="#4a2469"
   d="m 69.866,100.832 v 28.007 h -5.237 l -3.104,-12.732 v 12.732 h -4.98 v -28.007 h 5.001 l 3.34,12.611 v -12.611 z"
   id="path724"
   clip-path="url(#clipPath875)"
   transform="translate(-181.323,-12.203)" />
<path
   fill="#4a2469"
   d="m 82.308,100.832 v 28.007 h -5.969 v -28.007 z"
   id="path726"
   clip-path="url(#clipPath871)"
   transform="translate(-181.323,-12.203)" />
<path
   fill="#4a2469"
   d="m 86.875,100.832 h 12.017 v 5.612 h -4.929 v 5.297 h 4.39 v 5.337 h -4.39 v 11.761 h -7.088 z"
   id="path728"
   clip-path="url(#clipPath867)"
   transform="translate(-181.323,-12.203)" />
<path
   fill="#4a2469"
   d="m 110.365,100.832 v 28.007 h -5.969 v -28.007 z"
   id="path730"
   clip-path="url(#clipPath863)"
   transform="translate(-181.323,-12.203)" />
<path
   fill="#4a2469"
   d="m 116.83,100.832 h 9.942 v 5.612 h -3.974 v 5.297 h 3.717 v 5.337 h -3.717 v 6.148 h 4.368 v 5.612 H 116.83 Z"
   id="path732"
   clip-path="url(#clipPath859)"
   transform="translate(-181.323,-12.203)" />
<path
   fill="#4a2469"
   d="m 132.965,100.832 h 4.47 c 2.886,0 4.836,0.161 5.854,0.483 1.018,0.324 1.791,0.854 2.32,1.592 0.529,0.738 0.86,1.56 0.994,2.466 0.132,0.905 0.198,2.684 0.198,5.336 v 9.809 c 0,2.516 -0.097,4.195 -0.291,5.043 -0.194,0.849 -0.533,1.512 -1.015,1.99 -0.482,0.479 -1.079,0.813 -1.788,1.004 -0.709,0.189 -1.778,0.284 -3.207,0.284 h -7.535 z m 5.97,4.782 v 18.442 c 0.864,0 1.397,-0.211 1.598,-0.633 0.199,-0.421 0.299,-1.566 0.299,-3.437 v -10.892 c 0,-1.271 -0.033,-2.084 -0.1,-2.441 -0.067,-0.357 -0.219,-0.621 -0.456,-0.789 -0.238,-0.165 -0.686,-0.25 -1.341,-0.25 z"
   id="path734"
   clip-path="url(#clipPath855)"
   transform="translate(-181.323,-12.203)" />
<path
   fill="#4a2469"
   d="m 20.979,146.977 v 28.009 h -5.217 l -0.009,-18.909 -2.067,18.909 H 9.969 L 7.783,156.492 7.775,174.986 H 2.557 v -28.009 h 7.725 c 0.228,1.688 0.464,3.676 0.709,5.959 l 0.847,7.119 1.359,-13.078 z"
   id="path736"
   clip-path="url(#clipPath851)"
   transform="translate(-181.323,-12.203)" />
<path
   fill="#4a2469"
   d="m 41.391,163.386 c 0,2.813 -0.054,4.805 -0.163,5.976 -0.108,1.169 -0.449,2.239 -1.021,3.207 -0.571,0.969 -1.345,1.712 -2.318,2.231 -0.975,0.519 -2.109,0.778 -3.405,0.778 -1.229,0 -2.333,-0.245 -3.312,-0.736 -0.979,-0.489 -1.766,-1.223 -2.362,-2.204 -0.595,-0.98 -0.95,-2.046 -1.063,-3.199 -0.113,-1.154 -0.17,-3.171 -0.17,-6.053 v -4.791 c 0,-2.813 0.054,-4.804 0.162,-5.974 0.11,-1.171 0.449,-2.239 1.022,-3.209 0.572,-0.968 1.346,-1.712 2.318,-2.23 0.975,-0.52 2.109,-0.778 3.404,-0.778 1.23,0 2.335,0.246 3.313,0.735 0.978,0.49 1.765,1.226 2.361,2.205 0.596,0.979 0.95,2.046 1.063,3.199 0.113,1.152 0.17,3.17 0.17,6.052 v 4.791 z m -5.969,-9.197 c 0,-1.302 -0.06,-2.135 -0.178,-2.497 -0.119,-0.363 -0.363,-0.545 -0.732,-0.545 -0.313,0 -0.552,0.147 -0.719,0.44 -0.166,0.294 -0.249,1.161 -0.249,2.602 v 13.066 c 0,1.625 0.055,2.627 0.163,3.007 0.109,0.382 0.363,0.572 0.762,0.572 0.408,0 0.669,-0.221 0.783,-0.658 0.112,-0.437 0.17,-1.479 0.17,-3.128 z"
   id="path738"
   clip-path="url(#clipPath847)"
   transform="translate(-181.323,-12.203)" />
<path
   fill="#4a2469"
   d="m 47.959,146.977 h 4.47 c 2.886,0 4.837,0.162 5.854,0.484 1.018,0.324 1.791,0.854 2.32,1.593 0.529,0.737 0.86,1.559 0.993,2.464 0.134,0.906 0.199,2.685 0.199,5.337 v 9.809 c 0,2.516 -0.097,4.196 -0.291,5.044 -0.193,0.848 -0.532,1.509 -1.015,1.988 -0.482,0.479 -1.078,0.813 -1.788,1.003 -0.709,0.19 -1.778,0.287 -3.207,0.287 h -7.535 z m 5.97,4.783 v 18.442 c 0.865,0 1.397,-0.211 1.597,-0.633 0.2,-0.42 0.3,-1.566 0.3,-3.438 V 155.24 c 0,-1.27 -0.033,-2.083 -0.1,-2.441 -0.067,-0.358 -0.218,-0.62 -0.457,-0.788 -0.238,-0.167 -0.684,-0.251 -1.34,-0.251 z"
   id="path740"
   clip-path="url(#clipPath843)"
   transform="translate(-181.323,-12.203)" />
<path
   fill="#4a2469"
   d="m 68.369,146.977 h 12.072 v 5.613 h -4.824 v 5.297 h 4.512 v 5.337 h -4.512 v 6.147 h 5.303 v 5.614 H 68.369 Z"
   id="path742"
   clip-path="url(#clipPath839)"
   transform="translate(-181.323,-12.203)" />
<path
   fill="#4a2469"
   d="m 92.532,146.977 v 22.395 h 4.715 v 5.614 H 84.795 v -28.009 z"
   id="path744"
   clip-path="url(#clipPath835)"
   transform="translate(-181.323,-12.203)" />
<path
   fill="#4a2469"
   d="m 106.169,146.977 v 28.009 h -5.97 v -28.009 z"
   id="path746"
   clip-path="url(#clipPath831)"
   transform="translate(-181.323,-12.203)" />
<path
   fill="#4a2469"
   d="m 126.245,146.977 v 28.009 h -5.238 l -3.103,-12.733 v 12.733 h -4.981 v -28.009 h 5.001 l 3.341,12.612 v -12.612 z"
   id="path748"
   clip-path="url(#clipPath827)"
   transform="translate(-181.323,-12.203)" />
<path
   fill="#4a2469"
   d="m 146.705,157.294 h -5.969 v -2.538 c 0,-1.6 -0.058,-2.602 -0.17,-3.005 -0.113,-0.402 -0.381,-0.604 -0.804,-0.604 -0.366,0 -0.615,0.173 -0.747,0.519 -0.132,0.346 -0.197,1.233 -0.197,2.662 v 13.43 c 0,1.256 0.065,2.083 0.196,2.479 0.132,0.397 0.395,0.599 0.789,0.599 0.431,0 0.724,-0.226 0.877,-0.675 0.155,-0.45 0.232,-1.325 0.232,-2.629 v -3.319 h -1.186 v -4.25 h 6.978 v 15.023 h -3.765 l -0.555,-2.007 c -0.406,0.865 -0.917,1.515 -1.535,1.947 -0.617,0.435 -1.347,0.652 -2.186,0.652 -1,0 -1.938,-0.296 -2.81,-0.893 -0.872,-0.593 -1.535,-1.326 -1.987,-2.203 -0.453,-0.878 -0.735,-1.796 -0.85,-2.758 -0.112,-0.963 -0.17,-2.408 -0.17,-4.333 v -8.319 c 0,-2.673 0.118,-4.615 0.354,-5.826 0.236,-1.211 0.914,-2.321 2.034,-3.329 1.119,-1.009 2.566,-1.514 4.342,-1.514 1.748,0 3.196,0.438 4.349,1.313 1.152,0.878 1.903,1.918 2.252,3.121 0.351,1.206 0.525,2.954 0.525,5.247 v 1.21 z"
   id="path750"
   clip-path="url(#clipPath823)"
   transform="translate(-181.323,-12.203)" />
<path
   fill="#4a2469"
   d="m 11.112,192.022 v 22.395 h 4.833 v 5.613 H 3.177 v -28.008 z"
   id="path752"
   clip-path="url(#clipPath819)"
   transform="translate(-181.323,-12.203)" />
<path
   fill="#4a2469"
   d="m 31.58,191.705 3.424,28.009 H 28.9 l -0.318,-5.04 h -2.128 l -0.349,5.04 h -6.183 l 3.048,-28.009 z m -3.151,18.008 c -0.297,-3.168 -0.6,-7.089 -0.907,-11.767 -0.593,5.369 -0.968,9.29 -1.127,11.767 z"
   id="path754"
   clip-path="url(#clipPath815)"
   transform="translate(-181.323,-12.203)" />
<path
   fill="#4a2469"
   d="m 53.164,192.022 v 28.008 h -5.983 l -3.545,-12.734 v 12.734 h -5.69 v -28.008 h 5.712 l 3.817,12.61 v -12.61 z"
   id="path756"
   clip-path="url(#clipPath811)"
   transform="translate(-181.323,-12.203)" />
<path
   fill="#4a2469"
   d="m 73.392,202.34 h -6.785 v -2.54 c 0,-1.599 -0.064,-2.599 -0.193,-3.005 -0.128,-0.402 -0.434,-0.603 -0.913,-0.603 -0.417,0 -0.699,0.173 -0.85,0.519 -0.149,0.347 -0.225,1.233 -0.225,2.661 v 13.431 c 0,1.255 0.075,2.083 0.225,2.479 0.147,0.397 0.446,0.599 0.895,0.599 0.49,0 0.823,-0.226 1,-0.675 0.175,-0.45 0.264,-1.324 0.264,-2.63 v -3.317 h -1.35 v -4.249 h 7.932 v 15.021 h -4.279 l -0.631,-2.007 c -0.461,0.865 -1.043,1.515 -1.744,1.947 -0.704,0.435 -1.532,0.652 -2.487,0.652 -1.136,0 -2.199,-0.296 -3.192,-0.893 -0.992,-0.593 -1.745,-1.326 -2.26,-2.203 -0.515,-0.877 -0.837,-1.796 -0.965,-2.757 -0.13,-0.964 -0.193,-2.41 -0.193,-4.334 v -8.318 c 0,-2.674 0.133,-4.616 0.401,-5.827 0.269,-1.21 1.04,-2.32 2.313,-3.33 1.272,-1.009 2.917,-1.512 4.937,-1.512 1.986,0 3.636,0.437 4.945,1.314 1.311,0.874 2.163,1.914 2.561,3.12 0.397,1.203 0.596,2.952 0.596,5.246 v 1.211 z"
   id="path758"
   clip-path="url(#clipPath807)"
   transform="translate(-181.323,-12.203)" />
<path
   fill="#4a2469"
   d="m 92.757,192.022 v 18.721 c 0,2.122 -0.063,3.614 -0.186,4.472 -0.124,0.859 -0.49,1.741 -1.099,2.647 -0.609,0.905 -1.411,1.593 -2.405,2.059 -0.997,0.468 -2.17,0.702 -3.521,0.702 -1.496,0 -2.817,-0.276 -3.962,-0.83 -1.146,-0.553 -2.002,-1.275 -2.568,-2.164 -0.569,-0.888 -0.904,-1.823 -1.008,-2.812 -0.103,-0.986 -0.153,-3.06 -0.153,-6.22 v -16.575 h 6.522 v 21.001 c 0,1.223 0.058,2.006 0.178,2.344 0.116,0.342 0.354,0.513 0.713,0.513 0.409,0 0.673,-0.188 0.789,-0.564 0.117,-0.372 0.178,-1.26 0.178,-2.655 v -20.638 h 6.522 z"
   id="path760"
   clip-path="url(#clipPath803)"
   transform="translate(-181.323,-12.203)" />
<path
   fill="#4a2469"
   d="m 108.235,192.022 3.424,28.008 h -6.104 l -0.319,-5.04 h -2.128 l -0.349,5.04 h -6.182 l 3.048,-28.008 z m -3.15,18.006 c -0.298,-3.167 -0.6,-7.089 -0.908,-11.765 -0.593,5.368 -0.969,9.29 -1.126,11.765 z"
   id="path762"
   clip-path="url(#clipPath799)"
   transform="translate(-181.323,-12.203)" />
<path
   fill="#4a2469"
   d="m 130.512,202.34 h -6.65 v -2.54 c 0,-1.599 -0.063,-2.599 -0.188,-3.005 -0.126,-0.402 -0.423,-0.603 -0.896,-0.603 -0.407,0 -0.686,0.173 -0.832,0.519 -0.146,0.347 -0.22,1.233 -0.22,2.661 v 13.431 c 0,1.255 0.073,2.083 0.219,2.479 0.146,0.397 0.438,0.599 0.878,0.599 0.48,0 0.807,-0.226 0.979,-0.675 0.173,-0.45 0.259,-1.324 0.259,-2.63 v -3.317 h -1.321 v -4.249 h 7.773 v 15.021 h -4.194 l -0.617,-2.007 c -0.452,0.865 -1.022,1.515 -1.711,1.947 -0.688,0.435 -1.5,0.652 -2.435,0.652 -1.114,0 -2.158,-0.296 -3.129,-0.893 -0.974,-0.593 -1.712,-1.326 -2.216,-2.203 -0.505,-0.877 -0.82,-1.796 -0.946,-2.757 -0.125,-0.964 -0.188,-2.41 -0.188,-4.334 v -8.318 c 0,-2.674 0.132,-4.616 0.396,-5.827 0.262,-1.21 1.017,-2.32 2.264,-3.33 1.247,-1.009 2.86,-1.512 4.838,-1.512 1.947,0 3.562,0.437 4.846,1.314 1.284,0.874 2.12,1.914 2.51,3.12 0.39,1.203 0.584,2.952 0.584,5.246 v 1.211 z"
   id="path764"
   clip-path="url(#clipPath795)"
   transform="translate(-181.323,-12.203)" />
<path
   fill="#4a2469"
   d="m 134.736,192.022 h 12.071 v 5.612 h -4.823 v 5.299 h 4.512 v 5.336 h -4.512 v 6.147 h 5.303 v 5.613 h -12.551 z"
   id="path766"
   clip-path="url(#clipPath791)"
   transform="translate(-181.323,-12.203)" />

<g
   id="g776"
   clip-path="url(#clipPath787)"
   transform="translate(-181.323,-12.203)">
	<path
   fill="#4a2469"
   d="m 156.248,210.816 h -3.273 v -1.182 h 7.967 v 1.182 h -3.289 v 9.577 h -1.404 v -9.577 z"
   id="path772" />
	<path
   fill="#4a2469"
   d="m 171.209,215.668 c -0.08,-1.5 -0.176,-3.303 -0.159,-4.645 h -0.049 c -0.367,1.261 -0.814,2.602 -1.355,4.086 l -1.9,5.221 h -1.053 l -1.741,-5.124 c -0.511,-1.517 -0.941,-2.906 -1.245,-4.183 h -0.032 c -0.03,1.342 -0.11,3.145 -0.207,4.758 l -0.288,4.612 h -1.324 l 0.75,-10.759 h 1.772 l 1.835,5.204 c 0.448,1.323 0.814,2.505 1.086,3.623 h 0.048 c 0.271,-1.085 0.654,-2.267 1.134,-3.623 l 1.916,-5.204 h 1.771 l 0.671,10.759 h -1.356 z"
   id="path774" />
</g>
</svg>
